<?xml version="1.0" encoding="UTF-8"?>
<svg width="15px" height="15px" viewBox="0 0 15 15" version="1.1" xmlns="http://www.w3.org/2000/svg" xmlns:xlink="http://www.w3.org/1999/xlink">
    <title>diamond@3x</title>
    <g id="页面-1" stroke="none" stroke-width="1" fill="none" fill-rule="evenodd">
        <g id="Home" transform="translate(-173.000000, -684.000000)">
            <g id="编组-8" transform="translate(152.000000, 684.000000)">
                <g id="diamond" transform="translate(21.500000, 0.000000)">
                    <path d="M13.8820694,6.70238639 C14.0393102,6.86659146 14.0393102,7.13311786 13.8820694,7.29758131 L7.57720735,13.8766363 C7.41947127,14.0410997 7.16392397,14.0410997 7.00668314,13.8767654 L0.701449673,7.2978397 C0.54396122,7.13311786 0.54396122,6.86684984 0.701449673,6.70238639 L7.00693076,0.123202253 C7.16417159,-0.0410028144 7.41947127,-0.041132008 7.57720735,0.123202253 L13.8820694,6.70238639 Z" id="Fill-1" fill="#BE75FF"></path>
                    <path d="M8.65277778,2.89238429 L8.15390095,1.52067202 L2.33333333,5.5481939 L3.25673033,6.84090909 L8.65277778,2.89238429 Z M9.91666667,4.10965332 L3.34267707,8.75 L2.96527778,8.24032916 L9.45531202,3.65909091 L9.91666667,4.10965332 Z" id="Fill-4" fill="#FEB9EB"></path>
                    <path d="M3.59333587,10.5648099 L6.99165022,13.8767547 C7.15303424,14.0273955 7.41531503,14.0273955 7.57720735,13.8766363 L11.271657,9.43228017 L12.25,7 L1.75,7 L3.59333587,10.5648099 Z" id="Fill-6" fill="#A061FF"></path>
                    <path d="M7.07791861,0.0303822218 C7.0503002,0.0472025627 7.02374917,0.0663699278 7,0.0898401709 L0.127151434,6.69958089 C0.042161441,6.78250908 0,6.89125454 0,7 L4.68485657,7 L7.07791861,0.0303822218 Z" id="Fill-8" fill="#9F48FF"></path>
                    <path d="M9.31496588,7 L14,7 C14,6.89125859 13.9575725,6.78251718 13.872851,6.69959208 L7.51014179,0.0597165049 C7.4858594,0.0361167508 7.45904203,0.0168197143 7.43142414,0 L9.31496588,7 Z" id="Fill-10" fill="#D783EB"></path>
                    <path d="M7.2197548,14.046562 C7.24176864,14.0681956 7.26610616,14.0857653 7.29166667,14.1013032 L4.68600715,7 L0.00375824765,7.00537102 C0.00375824765,7.10493298 0.042404762,7.20461446 0.120309286,7.2808696 L7.2197548,14.046562 Z" id="Fill-12" fill="#8B38D6"></path>
                    <path d="M9.31496588,7 L7.3527065,14.059848 C7.38059122,14.0428976 7.40714175,14.0236002 7.43142414,14 L13.872851,7.30028313 C13.9575725,7.21735648 14,7.10861305 14,7 L9.31496588,7 Z" id="Fill-14" fill="#8536CD"></path>
                    <path d="M5.25,4.08191421 C4.14720646,4.4401888 3.85824967,4.73012705 3.50054561,5.83333333 C3.1430598,4.73100035 2.85279354,4.44106211 1.75,4.08300584 C2.85235705,3.72538623 3.14218682,3.43610297 3.49945439,2.33333333 C3.85737669,3.43610297 4.14720646,3.7251679 5.25,4.08191421" id="Fill-16" fill="#FFFFFF"></path>
                    <path d="M7,2.62429622 C6.44876508,2.80345858 6.30381964,2.94823624 6.12510052,3.5 C5.94658242,2.9486384 5.80123492,2.80365966 5.25,2.62469838 C5.80083285,2.44593818 5.94618036,2.3013616 6.12469845,1.75 C6.30341758,2.3013616 6.44836301,2.44593818 7,2.62429622" id="Fill-18" fill="#FFFFFF"></path>
                </g>
            </g>
        </g>
    </g>
</svg>