<?xml version="1.0" encoding="UTF-8"?>
<svg width="10px" height="10px" viewBox="0 0 10 10" version="1.1" xmlns="http://www.w3.org/2000/svg" xmlns:xlink="http://www.w3.org/1999/xlink">
    <title>famale@3x</title>
    <g id="页面-1" stroke="none" stroke-width="1" fill="none" fill-rule="evenodd">
        <g id="Home" transform="translate(-250.000000, -460.000000)">
            <g id="编组-4备份" transform="translate(195.000000, 248.000000)">
                <g id="编组-6" transform="translate(0.000000, 191.000000)">
                    <g id="famale" transform="translate(55.000000, 21.000000)">
                        <path d="M5,0 C7.76142375,-5.07265313e-16 10,2.23857625 10,5 C10,7.76142375 7.76142375,10 5,10 C2.23857625,10 3.38176876e-16,7.76142375 0,5 C-3.38176876e-16,2.23857625 2.23857625,5.07265313e-16 5,0 Z" id="矩形" fill="#F9447C"></path>
                        <path d="M5.32608181,5.81070445 C5.73160223,5.74141589 6.12180623,5.55543081 6.43615749,5.24910243 C7.23917544,4.46577701 7.24938639,3.20107844 6.45803808,2.42942268 C5.66668978,1.65776691 4.36917031,1.66724851 3.56615235,2.45057392 C2.7631344,3.23389934 2.75292345,4.49859791 3.54427175,5.27025367 C3.88415038,5.60210941 4.22840512,5.79611738 4.67622804,5.83987858 C4.67331063,6.0455562 4.67185192,6.25852735 4.67039321,6.46785175 L2.95495431,6.46785175 L2.95495431,7.06227467 L4.66966386,7.06227467 C4.67039321,7.6705553 4.67622804,8.14317622 4.67622804,8.14317622 L5.31076539,8.14317622 C5.31076539,8.14317622 5.31149474,7.62314733 5.31441215,7.06227467 L7.04297941,7.06227467 L7.04297941,6.46785175 L5.31732956,6.46785175 C5.31951762,6.1906975 5.32243504,5.94928157 5.32608181,5.81070445 Z M3.94687477,4.87786161 C3.37360309,4.319177 3.38089663,3.4031093 3.96219118,2.8364018 C4.54348573,2.2696943 5.48289276,2.26240078 6.05616443,2.82108538 C6.6294361,3.37976999 6.62214257,4.2958377 6.04084801,4.86254519 C5.4588241,5.42998204 4.51941708,5.43654622 3.94687477,4.87786161 Z" id="形状" stroke="#FFFFFF" stroke-width="0.2" fill="#FFFFFF" fill-rule="nonzero"></path>
                    </g>
                </g>
            </g>
        </g>
    </g>
</svg>