<?xml version="1.0" encoding="UTF-8"?>
<svg width="11px" height="11px" viewBox="0 0 11 11" version="1.1" xmlns="http://www.w3.org/2000/svg" xmlns:xlink="http://www.w3.org/1999/xlink">
    <title>male@3x</title>
    <defs>
        <filter color-interpolation-filters="auto" id="filter-1">
            <feColorMatrix in="SourceGraphic" type="matrix" values="0 0 0 0 1.000000 0 0 0 0 1.000000 0 0 0 0 1.000000 0 0 0 1.000000 0"></feColorMatrix>
        </filter>
    </defs>
    <g id="页面-1" stroke="none" stroke-width="1" fill="none" fill-rule="evenodd">
        <g id="Home" transform="translate(-70.000000, -460.000000)">
            <g id="编组-4" transform="translate(15.000000, 248.000000)">
                <g id="编组-6" transform="translate(0.000000, 191.000000)">
                    <g id="male" transform="translate(55.000000, 21.000000)">
                        <path d="M5.5,0 C8.53756612,-5.57991845e-16 11,2.46243388 11,5.5 C11,8.53756612 8.53756612,11 5.5,11 C2.46243388,11 3.71994563e-16,8.53756612 0,5.5 C-3.71994563e-16,2.46243388 2.46243388,5.57991845e-16 5.5,0 Z" id="矩形" fill="#4465F9"></path>
                        <g filter="url(#filter-1)" id="编组">
                            <g transform="translate(2.268719, 2.042506)">
                                <path d="M6.14004328,2.45442663 L6.14004328,1.22800865 C5.89666851,1.46502069 5.16574885,2.17605679 4.78716588,2.54430032 C5.15938611,2.99923617 5.38287733,3.57585941 5.38287733,4.20417989 C5.38287733,5.66601921 4.17554757,6.85585144 2.69143867,6.85585144 C1.20732976,6.85585144 0,5.66601922 0,4.20417989 C0,2.74234057 1.20732976,1.55250835 2.69143867,1.55250835 C3.27203861,1.55250835 3.80889473,1.73623245 4.24951442,2.04562064 C4.62332534,1.69010258 5.37571925,0.975885117 5.6318195,0.731714999 L4.28689551,0.731714999 L4.28689551,0 L6.85187473,0 L6.85187473,2.45363129 L6.14004328,2.45363129 L6.14004328,2.45442663 Z M0.742849799,4.20417989 C0.742849799,5.26278063 1.61693109,6.12413644 2.69223401,6.12413644 C3.76753692,6.12413644 4.64161822,5.26278063 4.64161822,4.20417989 C4.64161822,3.14557916 3.76594623,2.28422336 2.69143867,2.28422336 C1.6169311,2.28422336 0.742849799,3.14557917 0.742849799,4.20417989 Z" id="形状" stroke="#979797" stroke-width="0.2" fill="#272636" fill-rule="nonzero"></path>
                            </g>
                        </g>
                    </g>
                </g>
            </g>
        </g>
    </g>
</svg>