<?xml version="1.0" encoding="UTF-8"?>
<svg width="24px" height="24px" viewBox="0 0 24 24" version="1.1" xmlns="http://www.w3.org/2000/svg" xmlns:xlink="http://www.w3.org/1999/xlink">
    <title>video@3x</title>
    <defs>
        <linearGradient x1="100%" y1="10.8690939%" x2="1.56125113e-15%" y2="87.6714999%" id="linearGradient-1">
            <stop stop-color="#D016C8" offset="0%"></stop>
            <stop stop-color="#7F04BA" offset="47.0143138%"></stop>
            <stop stop-color="#4D09C1" offset="100%"></stop>
        </linearGradient>
    </defs>
    <g id="页面-1" stroke="none" stroke-width="1" fill="none" fill-rule="evenodd">
        <g id="Home" transform="translate(-156.000000, -443.000000)">
            <g id="编组-4" transform="translate(15.000000, 248.000000)">
                <g id="编组-6" transform="translate(0.000000, 191.000000)">
                    <g id="编组" transform="translate(141.000000, 4.000000)">
                        <path d="M12.00006,0 C5.34888516,0 0,5.33349604 0,11.9663288 C0,18.5991375 5.34886116,24 12.00006,24 C18.6504186,24 24,18.5991375 24,11.9663288 C24,5.33349604 18.6504186,0 12.00006,0 Z" id="形状" fill="url(#linearGradient-1)"></path>
                        <g opacity="0.901436942" transform="translate(6.066543, 7.604619)" fill="#FFFFFF" fill-rule="nonzero" id="路径">
                            <path d="M11.3283017,7.70203007 C11.6244789,7.70203007 11.8646482,7.4699297 11.8646482,7.18466933 C11.8646482,7.17422718 11.8665467,7.1699554 11.8665467,7.16425968 L11.8665467,2.19285012 C11.8665467,2.18715441 11.8651228,2.18288262 11.8651228,2.17244048 C11.8651228,1.88670546 11.6244789,1.65507973 11.3287763,1.65507973 C11.2376449,1.65507973 11.1531585,1.67691331 11.0791142,1.71488474 L11.0757917,1.71488474 L9.43874838,2.56734336 L9.43874838,1.30004686 C9.43874838,0.581437532 8.83595192,0 8.09076259,0 L1.34846043,0 C0.603271105,0 0,0.581437532 0,1.29957221 L0,7.79743329 C0.000474642883,8.51651726 0.603271105,9.09748014 1.34846043,9.09748014 L8.09076259,9.09748014 C8.83595192,9.09748014 9.43874838,8.51604261 9.43874838,7.79790793 L9.43874838,6.78834252 L11.0852845,7.64507292 C11.1593288,7.67829792 11.2409674,7.70203007 11.3283017,7.70203007 Z"></path>
                        </g>
                    </g>
                </g>
            </g>
        </g>
    </g>
</svg>